<svg width="225" height="64" viewBox="0 0 225 64" fill="none" xmlns="http://www.w3.org/2000/svg">
<path d="M14.8943 59.1024C7.82562 54.4783 3.19005 48.1061 1.02096 39.9446C0.0778673 36.3961 -0.228635 32.774 0.171658 29.1163C1.47398 17.2163 7.51446 8.58131 18.0505 3.15243C21.9675 1.13412 26.1944 0.170671 30.6111 0.0206948C38.419 -0.244437 45.4082 2.03743 51.5152 6.89826C57.35 11.5424 61.1199 17.5591 62.8122 24.8794C63.362 27.2577 63.6457 29.6665 63.6215 32.096C63.5486 39.4231 61.3002 46.008 56.7998 51.7861C52.6193 57.1536 47.2326 60.7403 40.7771 62.7409C40.4422 62.8447 40.2449 62.7758 40.0447 62.485C36.5559 57.4167 33.058 52.3548 29.5636 47.2905C29.482 47.1722 29.3757 47.062 29.378 46.893C29.4778 46.7053 29.6618 46.7719 29.813 46.7705C30.6358 46.7633 31.4592 46.7835 32.2812 46.7575C32.6346 46.7463 32.8442 46.8678 33.0445 47.1588C35.6793 50.9866 38.3332 54.801 40.9604 58.6339C41.2383 59.0393 41.4539 59.1397 41.9278 58.9512C49.601 55.8978 55.0401 50.531 58.2786 42.9122C59.4646 40.122 60.1733 37.1891 60.3213 34.15C60.8833 22.6085 56.2917 13.6886 46.6926 7.42347C43.1958 5.14116 39.2883 3.86292 35.1331 3.40795C27.0752 2.52565 19.8581 4.64017 13.6171 9.81653C7.97343 14.4974 4.49376 20.5438 3.55456 27.8684C2.11203 39.1184 6.00727 48.2547 14.8833 55.1817C18.8345 58.2652 23.3956 59.9918 28.369 60.5981C30.5935 60.8694 32.8132 60.8892 35.0365 60.6133C35.2342 60.5888 35.4601 60.5348 35.598 60.7284C36.2226 61.605 36.8353 62.4902 37.5542 63.5179C29.3582 64.8503 21.8701 63.4343 14.8943 59.1024Z" fill="#00CED1"/>
<path d="M50.255 22.3809C53.1149 24.8759 54.5667 27.9859 54.5591 31.768C54.5493 36.7063 51.2 41.3144 46.5417 42.8734C45.222 43.315 43.8818 43.5097 42.5038 43.5137C40.8763 43.5183 39.2485 43.4988 37.6214 43.5256C37.1132 43.5339 36.9595 43.3594 36.9607 42.857C36.9738 37.4064 36.9675 31.9557 36.969 26.505C36.9692 25.7872 36.9824 25.7802 37.7163 25.779C38.2649 25.7781 38.8153 25.8062 39.3616 25.7704C39.8452 25.7388 39.9868 25.9138 39.9847 26.3986C39.9678 30.2655 39.9759 34.1326 39.9763 37.9996C39.9764 38.681 39.9828 39.3624 39.9734 40.0436C39.9692 40.3439 40.0815 40.4817 40.3915 40.4747C41.723 40.4447 43.0536 40.5319 44.3823 40.2891C48.9119 39.4611 52.1048 35.0355 51.4589 30.4315C50.8277 25.9328 47.2227 22.7472 42.7058 22.7241C39.4874 22.7077 36.2688 22.716 33.0503 22.731C32.6097 22.733 32.3016 22.6064 32.0204 22.2523C31.3909 21.4597 30.6537 20.7687 29.8661 20.1342C29.7405 20.033 29.583 19.9579 29.5509 19.7743C29.6352 19.6408 29.7689 19.6484 29.8949 19.6514C34.0999 19.7519 38.3059 19.7124 42.5106 19.6781C45.4222 19.6544 47.9614 20.5635 50.255 22.3809Z" fill="#00CED1"/>
<path d="M11.5083 38.8553C9.8616 36.6014 9.04548 34.1208 9.06732 31.3521C9.10906 26.0629 12.8399 21.2846 17.9543 20.0324C24.9994 18.3075 31.0772 22.914 32.4327 28.8756C33.1907 32.2098 32.6015 35.3 30.7552 38.1579C30.696 38.2495 30.625 38.334 30.5532 38.4162C30.5317 38.4409 30.4886 38.4465 30.4545 38.4612C30.2671 38.4272 30.2036 38.2628 30.1139 38.1286C29.7769 37.6246 29.4753 37.0923 29.0977 36.6216C28.717 36.147 28.7048 35.7417 28.9604 35.1792C31.3979 29.815 27.9592 23.6223 22.1811 22.8017C16.8945 22.0508 12.8465 25.7678 12.1829 30.3071C11.4896 35.049 14.7027 39.472 19.2696 40.309C19.88 40.4209 20.498 40.5176 21.1217 40.47C21.4702 40.4434 21.7052 40.5575 21.8969 40.857C22.3801 41.6119 22.887 42.3516 23.3928 43.11C20.499 44.137 14.9917 43.3647 11.5083 38.8553Z" fill="#00CED1"/>
<path d="M30.2881 43.1578C30.4388 43.4073 30.642 43.5829 30.6844 43.9083C30.3352 44.0333 29.9727 43.9556 29.6221 43.969C29.2574 43.9829 28.8837 43.9223 28.5281 43.9809C27.5927 44.1351 27.036 43.7412 26.5386 42.9461C25.4008 41.127 24.1732 39.3643 22.9597 37.5942C22.6781 37.1834 22.6948 36.9419 23.1443 36.6921C23.6707 36.3995 24.1756 36.0632 24.6683 35.7151C25.0163 35.4692 25.2215 35.5145 25.4513 35.8842C26.9821 38.3473 28.6327 40.7302 30.2881 43.1578Z" fill="#00CED1"/>
<path d="M81.6116 30.3984V10.5118L82.1871 7.07013H86.1218V30.3984H81.6116ZM70.9738 15.6664V15.3394C70.9738 14.052 71.1137 12.884 71.3937 11.8355C71.684 10.7765 72.1091 9.87326 72.669 9.12576C73.2289 8.36787 73.9132 7.78648 74.7219 7.38159C75.541 6.96631 76.4845 6.75867 77.5524 6.75867C78.5789 6.75867 79.4654 6.96631 80.2119 7.38159C80.9584 7.79686 81.5857 8.38345 82.0938 9.14133C82.6122 9.89921 83.0269 10.7921 83.338 11.8199C83.649 12.8477 83.8875 13.9741 84.0534 15.1992V15.9156C83.8978 17.0887 83.6594 18.1788 83.338 19.1859C83.0269 20.1929 82.6122 21.0754 82.0938 21.8333C81.5857 22.5912 80.9532 23.183 80.1964 23.6086C79.4498 24.0239 78.5582 24.2315 77.5213 24.2315C76.4741 24.2315 75.541 24.0187 74.7219 23.593C73.9132 23.157 73.2289 22.5548 72.669 21.7866C72.1091 21.0183 71.684 20.1151 71.3937 19.0769C71.1137 18.0283 70.9738 16.8915 70.9738 15.6664ZM75.4529 15.3394V15.6664C75.4529 16.362 75.5099 17.0161 75.6239 17.6286C75.738 18.2307 75.9194 18.7654 76.1683 19.2326C76.4275 19.6998 76.7593 20.0684 77.1636 20.3383C77.568 20.5978 78.0657 20.7276 78.6567 20.7276C79.4758 20.7276 80.1341 20.5511 80.6318 20.1981C81.1399 19.8348 81.5131 19.3416 81.7516 18.7187C82.0004 18.0958 82.1456 17.3846 82.1871 16.5852V14.5451C82.156 13.8911 82.0678 13.3045 81.9227 12.7854C81.7879 12.2559 81.5805 11.8043 81.3006 11.4306C81.031 11.0568 80.6785 10.7713 80.243 10.574C79.8179 10.3664 79.2995 10.2626 78.6878 10.2626C78.1071 10.2626 77.6095 10.3924 77.1947 10.6519C76.78 10.9115 76.443 11.2748 76.1838 11.742C75.935 12.1988 75.7484 12.7335 75.6239 13.346C75.5099 13.9586 75.4529 14.623 75.4529 15.3394Z" fill="#00CED1"/>
<path d="M99.6364 19.8867V7.07013H104.116V23.9201H99.9008L99.6364 19.8867ZM100.134 16.4295L101.456 16.3983C101.456 17.5196 101.326 18.563 101.067 19.5285C100.808 20.4836 100.419 21.3142 99.9008 22.0202C99.3824 22.7158 98.7292 23.2608 97.9412 23.6553C97.1532 24.0395 96.2253 24.2315 95.1573 24.2315C94.3382 24.2315 93.5814 24.1173 92.8867 23.8889C92.2024 23.6501 91.6114 23.2816 91.1137 22.7832C90.6264 22.2745 90.2428 21.6257 89.9628 20.8366C89.6932 20.0372 89.5585 19.0769 89.5585 17.9556V7.07013H94.0376V17.9868C94.0376 18.4851 94.0946 18.9056 94.2086 19.2482C94.3331 19.5908 94.5041 19.8711 94.7219 20.0891C94.9396 20.3071 95.1936 20.4629 95.4839 20.5563C95.7846 20.6497 96.1164 20.6965 96.4793 20.6965C97.4021 20.6965 98.1279 20.5096 98.6566 20.1358C99.1958 19.7621 99.5742 19.2534 99.792 18.6097C100.02 17.9556 100.134 17.2289 100.134 16.4295Z" fill="#00CED1"/>
<path d="M116.65 20.1203V12.6141C116.65 12.0742 116.562 11.6122 116.386 11.2281C116.21 10.8336 115.935 10.5273 115.562 10.3093C115.199 10.0913 114.727 9.98227 114.146 9.98227C113.649 9.98227 113.218 10.0705 112.856 10.247C112.493 10.4131 112.213 10.6571 112.016 10.9789C111.819 11.2904 111.72 11.659 111.72 12.0846H107.241C107.241 11.3683 107.407 10.6882 107.739 10.0446C108.071 9.40088 108.553 8.83506 109.185 8.34711C109.818 7.84877 110.569 7.45945 111.44 7.17914C112.322 6.89882 113.307 6.75867 114.395 6.75867C115.702 6.75867 116.863 6.97669 117.879 7.41273C118.895 7.84877 119.693 8.50284 120.274 9.37492C120.865 10.247 121.161 11.3371 121.161 12.6452V19.8555C121.161 20.7795 121.218 21.5374 121.332 22.1292C121.446 22.7106 121.612 23.2193 121.829 23.6553V23.9201H117.304C117.086 23.4633 116.92 22.8923 116.806 22.207C116.702 21.5115 116.65 20.8159 116.65 20.1203ZM117.241 13.6575L117.272 16.1959H114.769C114.178 16.1959 113.664 16.2634 113.229 16.3983C112.793 16.5333 112.436 16.7254 112.156 16.9745C111.876 17.2133 111.668 17.4936 111.534 17.8155C111.409 18.1373 111.347 18.4903 111.347 18.8744C111.347 19.2586 111.435 19.6064 111.611 19.9178C111.788 20.2189 112.042 20.4577 112.373 20.6342C112.705 20.8003 113.094 20.8833 113.54 20.8833C114.214 20.8833 114.8 20.7484 115.297 20.4784C115.795 20.2085 116.179 19.8763 116.448 19.4818C116.728 19.0873 116.873 18.7135 116.884 18.3605L118.066 20.2604C117.9 20.6861 117.672 21.1273 117.381 21.5841C117.101 22.0409 116.744 22.4718 116.308 22.8767C115.873 23.2712 115.349 23.5982 114.737 23.8578C114.126 24.1069 113.4 24.2315 112.56 24.2315C111.492 24.2315 110.523 24.0187 109.652 23.593C108.791 23.157 108.107 22.56 107.599 21.8022C107.101 21.0339 106.852 20.1618 106.852 19.1859C106.852 18.3034 107.018 17.5196 107.35 16.8344C107.682 16.1492 108.169 15.573 108.812 15.1058C109.465 14.6282 110.279 14.27 111.254 14.0312C112.228 13.7821 113.358 13.6575 114.644 13.6575H117.241Z" fill="#00CED1"/>
<path d="M129.372 0V23.9201H124.877V0H129.372Z" fill="#00CED1"/>
<path d="M137.832 7.07013V23.9201H133.337V7.07013H137.832ZM133.057 2.67855C133.057 2.02449 133.285 1.48462 133.742 1.05896C134.198 0.633301 134.809 0.42047 135.577 0.42047C136.334 0.42047 136.94 0.633301 137.396 1.05896C137.863 1.48462 138.096 2.02449 138.096 2.67855C138.096 3.33261 137.863 3.87248 137.396 4.29814C136.94 4.7238 136.334 4.93663 135.577 4.93663C134.809 4.93663 134.198 4.7238 133.742 4.29814C133.285 3.87248 133.057 3.33261 133.057 2.67855Z" fill="#00CED1"/>
<path d="M149.807 7.07013V10.247H140.009V7.07013H149.807ZM142.435 2.91214H146.914V18.8433C146.914 19.3312 146.976 19.705 147.101 19.9645C147.235 20.2241 147.432 20.4058 147.692 20.5096C147.951 20.603 148.277 20.6498 148.671 20.6498C148.951 20.6498 149.2 20.6394 149.418 20.6186C149.646 20.5875 149.838 20.5563 149.993 20.5252L150.009 23.8266C149.625 23.9512 149.211 24.0498 148.765 24.1225C148.319 24.1952 147.826 24.2315 147.287 24.2315C146.302 24.2315 145.442 24.0706 144.706 23.7488C143.98 23.4165 143.42 22.8871 143.026 22.1603C142.632 21.4336 142.435 20.4784 142.435 19.2949V2.91214Z" fill="#00CED1"/>
<path d="M157.38 22.0202L161.844 7.07013H166.65L159.884 26.4585C159.739 26.8841 159.542 27.3409 159.293 27.8289C159.055 28.3168 158.728 28.7788 158.313 29.2149C157.909 29.6613 157.396 30.0247 156.774 30.305C156.162 30.5853 155.41 30.7255 154.519 30.7255C154.094 30.7255 153.746 30.6995 153.477 30.6476C153.207 30.5957 152.886 30.523 152.512 30.4296V27.1437C152.626 27.1437 152.746 27.1437 152.87 27.1437C152.995 27.1541 153.114 27.1593 153.228 27.1593C153.819 27.1593 154.301 27.0918 154.674 26.9568C155.047 26.8218 155.348 26.6142 155.576 26.3339C155.804 26.064 155.986 25.711 156.121 25.2749L157.38 22.0202ZM155.514 7.07013L159.169 19.2793L159.806 24.0291L156.758 24.3561L150.708 7.07013H155.514Z" fill="#00CED1"/>
<path d="M83.3068 58.0632V37.4134H85.1731V61.3335H83.4313L83.3068 58.0632ZM71.627 53.0798V52.7528C71.627 51.4447 71.7773 50.2663 72.078 49.2178C72.3787 48.1588 72.8089 47.2556 73.3688 46.5081C73.9391 45.7502 74.6234 45.174 75.4218 44.7795C76.2201 44.3746 77.1222 44.1721 78.1279 44.1721C79.1129 44.1721 79.9838 44.333 80.7407 44.6549C81.4976 44.9767 82.1456 45.4387 82.6848 46.0409C83.2343 46.643 83.6749 47.3594 84.0067 48.1899C84.3489 49.0205 84.5977 49.9445 84.7532 50.9619V55.1199C84.6288 56.0751 84.4007 56.9523 84.0689 57.7517C83.7371 58.5408 83.2965 59.2312 82.747 59.8229C82.1974 60.4043 81.5339 60.856 80.7562 61.1778C79.989 61.4893 79.1025 61.645 78.0968 61.645C77.1014 61.645 76.2046 61.4373 75.4062 61.0221C74.6078 60.6068 73.9287 60.0202 73.3688 59.2623C72.8089 58.4941 72.3787 57.5856 72.078 56.5371C71.7773 55.4885 71.627 54.3361 71.627 53.0798ZM73.4933 52.7528V53.0798C73.4933 54.0661 73.5918 54.9798 73.7887 55.8207C73.9857 56.6616 74.2864 57.3936 74.6908 58.0165C75.0952 58.6394 75.6084 59.1274 76.2305 59.4803C76.8526 59.8333 77.5887 60.0098 78.4389 60.0098C79.5069 60.0098 80.4037 59.8074 81.1295 59.4025C81.8553 58.9872 82.4359 58.4421 82.8714 57.7673C83.3068 57.0821 83.6231 56.3346 83.8201 55.5248V50.6816C83.6957 50.1314 83.5142 49.5707 83.2757 48.9997C83.0373 48.4287 82.7107 47.9044 82.2959 47.4269C81.8916 46.9389 81.3732 46.5496 80.7407 46.2589C80.1186 45.9578 79.3617 45.8073 78.47 45.8073C77.6095 45.8073 76.8681 45.9838 76.246 46.3368C75.6239 46.6897 75.1055 47.1829 74.6908 47.8162C74.2864 48.4391 73.9857 49.171 73.7887 50.012C73.5918 50.8529 73.4933 51.7665 73.4933 52.7528Z" fill="#00CED1"/>
<path d="M92.1713 44.4836V61.3335H90.3205V44.4836H92.1713ZM89.9939 39.6092C89.9939 39.2562 90.1028 38.9604 90.3205 38.7216C90.5486 38.4724 90.8597 38.3478 91.2537 38.3478C91.6477 38.3478 91.9587 38.4724 92.1868 38.7216C92.4253 38.9604 92.5445 39.2562 92.5445 39.6092C92.5445 39.9518 92.4253 40.2477 92.1868 40.4969C91.9587 40.7357 91.6477 40.8551 91.2537 40.8551C90.8597 40.8551 90.5486 40.7357 90.3205 40.4969C90.1028 40.2477 89.9939 39.9518 89.9939 39.6092Z" fill="#00CED1"/>
<path d="M107.366 57.0354C107.366 56.5786 107.251 56.127 107.023 55.6805C106.795 55.2341 106.355 54.824 105.701 54.4503C105.059 54.0765 104.11 53.7599 102.855 53.5003C101.922 53.2927 101.088 53.0591 100.351 52.7995C99.6256 52.54 99.0139 52.2285 98.5162 51.8652C98.0185 51.5018 97.6401 51.0657 97.3809 50.557C97.1217 50.0483 96.9921 49.4462 96.9921 48.7506C96.9921 48.1276 97.1268 47.5411 97.3964 46.9908C97.6764 46.4302 98.0704 45.9422 98.5784 45.527C99.0968 45.1013 99.7189 44.7691 100.445 44.5303C101.181 44.2915 102.005 44.1721 102.918 44.1721C104.214 44.1721 105.323 44.3953 106.246 44.8418C107.179 45.2778 107.889 45.8748 108.376 46.6326C108.874 47.3905 109.123 48.247 109.123 49.2022H107.272C107.272 48.6208 107.101 48.0705 106.759 47.5514C106.427 47.0323 105.935 46.6067 105.282 46.2745C104.639 45.9422 103.851 45.7761 102.918 45.7761C101.953 45.7761 101.17 45.9215 100.569 46.2122C99.9678 46.5029 99.5271 46.8714 99.2472 47.3179C98.9776 47.7643 98.8428 48.2263 98.8428 48.7038C98.8428 49.0776 98.8998 49.4202 99.0139 49.7317C99.1383 50.0327 99.356 50.3131 99.6671 50.5726C99.9885 50.8321 100.445 51.0761 101.036 51.3045C101.627 51.5329 102.394 51.7561 103.337 51.9742C104.696 52.2752 105.805 52.6438 106.666 53.0798C107.537 53.5055 108.179 54.035 108.594 54.6683C109.009 55.2912 109.216 56.0491 109.216 56.9419C109.216 57.6375 109.071 58.276 108.781 58.8574C108.49 59.4284 108.071 59.9216 107.521 60.3369C106.982 60.7521 106.329 61.074 105.561 61.3024C104.805 61.5308 103.954 61.645 103.011 61.645C101.59 61.645 100.388 61.4114 99.4027 60.9442C98.4281 60.4666 97.6867 59.8437 97.1787 59.0754C96.681 58.2968 96.4322 57.4714 96.4322 56.5993H98.2829C98.3451 57.4714 98.6199 58.1618 99.1072 58.6705C99.5945 59.1689 100.191 59.5219 100.896 59.7295C101.611 59.9371 102.316 60.041 103.011 60.041C103.965 60.041 104.763 59.9008 105.406 59.6205C106.049 59.3402 106.536 58.9716 106.868 58.5148C107.2 58.058 107.366 57.5649 107.366 57.0354Z" fill="#00CED1"/>
<path d="M119.823 44.4836V46.0097H111.393V44.4836H119.823ZM114.488 40.1543H116.339V57.2378C116.339 58.0165 116.443 58.6031 116.65 58.9976C116.857 59.3921 117.127 59.6568 117.459 59.7918C117.79 59.9268 118.148 59.9942 118.532 59.9942C118.812 59.9942 119.081 59.9787 119.34 59.9475C119.6 59.906 119.833 59.8645 120.04 59.8229L120.118 61.3958C119.89 61.4685 119.594 61.5256 119.232 61.5671C118.869 61.619 118.506 61.645 118.143 61.645C117.427 61.645 116.795 61.5152 116.246 61.2557C115.696 60.9857 115.266 60.5289 114.955 59.8852C114.644 59.2312 114.488 58.3435 114.488 57.2223V40.1543Z" fill="#00CED1"/>
<path d="M125.608 47.2711V61.3335H123.757V44.4836H125.561L125.608 47.2711ZM131.564 44.359L131.518 46.072C131.31 46.0409 131.108 46.0149 130.911 45.9942C130.714 45.9734 130.501 45.963 130.273 45.963C129.465 45.963 128.754 46.1135 128.143 46.4146C127.541 46.7053 127.033 47.1154 126.619 47.6449C126.204 48.164 125.888 48.7765 125.67 49.4825C125.452 50.1781 125.328 50.9256 125.297 51.725L124.612 51.9897C124.612 50.8893 124.726 49.8666 124.954 48.9219C125.183 47.9771 125.53 47.1517 125.996 46.4458C126.473 45.7294 127.07 45.174 127.785 44.7795C128.511 44.3746 129.361 44.1721 130.336 44.1721C130.574 44.1721 130.807 44.1929 131.035 44.2344C131.274 44.2656 131.45 44.3071 131.564 44.359Z" fill="#00CED1"/>
<path d="M136.587 44.4836V61.3335H134.736V44.4836H136.587ZM134.41 39.6092C134.41 39.2562 134.519 38.9604 134.736 38.7216C134.965 38.4724 135.276 38.3478 135.67 38.3478C136.064 38.3478 136.375 38.4724 136.603 38.7216C136.841 38.9604 136.96 39.2562 136.96 39.6092C136.96 39.9518 136.841 40.2477 136.603 40.4969C136.375 40.7357 136.064 40.8551 135.67 40.8551C135.276 40.8551 134.965 40.7357 134.736 40.4969C134.519 40.2477 134.41 39.9518 134.41 39.6092Z" fill="#00CED1"/>
<path d="M141.672 37.4134H143.539V58.0632L143.414 61.3335H141.672V37.4134ZM155.25 52.7528V53.0798C155.25 54.3361 155.104 55.4885 154.814 56.5371C154.524 57.5856 154.104 58.4941 153.554 59.2623C153.005 60.0202 152.331 60.6068 151.533 61.0221C150.745 61.4373 149.837 61.645 148.811 61.645C147.805 61.645 146.914 61.4893 146.136 61.1778C145.358 60.856 144.695 60.4043 144.145 59.8229C143.596 59.2312 143.155 58.5408 142.823 57.7517C142.491 56.9523 142.258 56.0751 142.123 55.1199V50.9619C142.279 49.9445 142.528 49.0205 142.87 48.1899C143.212 47.3594 143.653 46.643 144.192 46.0409C144.741 45.4387 145.395 44.9767 146.151 44.6549C146.919 44.333 147.795 44.1721 148.78 44.1721C149.806 44.1721 150.719 44.3746 151.517 44.7795C152.326 45.174 153.005 45.7502 153.554 46.5081C154.104 47.2556 154.524 48.1588 154.814 49.2178C155.104 50.2663 155.25 51.4447 155.25 52.7528ZM153.368 53.0798V52.7528C153.368 51.7665 153.274 50.8529 153.088 50.012C152.901 49.171 152.606 48.4391 152.201 47.8162C151.807 47.1829 151.299 46.6897 150.677 46.3368C150.055 45.9838 149.309 45.8073 148.438 45.8073C147.546 45.8073 146.784 45.9578 146.151 46.2589C145.529 46.5496 145.011 46.9389 144.596 47.4269C144.192 47.9044 143.87 48.4287 143.632 48.9997C143.393 49.5707 143.217 50.1314 143.103 50.6816V55.5248C143.279 56.3035 143.585 57.0354 144.021 57.7206C144.456 58.4058 145.042 58.9612 145.778 59.3869C146.514 59.8022 147.411 60.0098 148.469 60.0098C149.319 60.0098 150.05 59.8333 150.662 59.4803C151.284 59.1274 151.792 58.6394 152.186 58.0165C152.59 57.3936 152.886 56.6616 153.072 55.8207C153.269 54.9798 153.368 54.0661 153.368 53.0798Z" fill="#00CED1"/>
<path d="M170.18 57.4403V44.4836H172.046V61.3335H170.257L170.18 57.4403ZM170.522 54.3257L171.486 54.2945C171.486 55.3535 171.361 56.3294 171.113 57.2223C170.864 58.1151 170.475 58.8938 169.946 59.5582C169.417 60.2227 168.733 60.7366 167.893 61.0999C167.053 61.4633 166.043 61.645 164.861 61.645C164.041 61.645 163.29 61.5308 162.605 61.3024C161.932 61.0636 161.351 60.6898 160.864 60.1811C160.376 59.6724 159.998 59.0131 159.728 58.2034C159.469 57.3936 159.339 56.4125 159.339 55.2601V44.4836H161.19V55.2912C161.19 56.1944 161.289 56.9471 161.486 57.5493C161.693 58.1514 161.973 58.6342 162.326 58.9976C162.688 59.3609 163.103 59.6205 163.57 59.7762C164.036 59.932 164.539 60.0098 165.078 60.0098C166.447 60.0098 167.525 59.7451 168.313 59.2156C169.112 58.6861 169.677 57.9905 170.008 57.1288C170.351 56.2567 170.522 55.3224 170.522 54.3257Z" fill="#00CED1"/>
<path d="M183.305 44.4836V46.0097H174.876V44.4836H183.305ZM177.971 40.1543H179.822V57.2378C179.822 58.0165 179.925 58.6031 180.133 58.9976C180.34 59.3921 180.61 59.6568 180.941 59.7918C181.273 59.9268 181.631 59.9942 182.014 59.9942C182.294 59.9942 182.564 59.9787 182.823 59.9475C183.082 59.906 183.316 59.8645 183.523 59.8229L183.601 61.3958C183.373 61.4685 183.077 61.5256 182.714 61.5671C182.351 61.619 181.989 61.645 181.626 61.645C180.91 61.645 180.278 61.5152 179.728 61.2557C179.179 60.9857 178.748 60.5289 178.437 59.8852C178.126 59.2312 177.971 58.3435 177.971 57.2223V40.1543Z" fill="#00CED1"/>
<path d="M189.308 44.4836V61.3335H187.457V44.4836H189.308ZM187.131 39.6092C187.131 39.2562 187.24 38.9604 187.457 38.7216C187.685 38.4724 187.996 38.3478 188.39 38.3478C188.784 38.3478 189.096 38.4724 189.324 38.7216C189.562 38.9604 189.681 39.2562 189.681 39.6092C189.681 39.9518 189.562 40.2477 189.324 40.4969C189.096 40.7357 188.784 40.8551 188.39 40.8551C187.996 40.8551 187.685 40.7357 187.457 40.4969C187.24 40.2477 187.131 39.9518 187.131 39.6092Z" fill="#00CED1"/>
<path d="M193.398 53.1733V52.6594C193.398 51.4343 193.574 50.3027 193.927 49.2645C194.279 48.2263 194.782 47.3282 195.435 46.5704C196.099 45.8125 196.892 45.2259 197.815 44.8106C198.738 44.3849 199.764 44.1721 200.894 44.1721C202.035 44.1721 203.066 44.3849 203.989 44.8106C204.912 45.2259 205.705 45.8125 206.369 46.5704C207.032 47.3282 207.54 48.2263 207.893 49.2645C208.245 50.3027 208.422 51.4343 208.422 52.6594V53.1733C208.422 54.3984 208.245 55.53 207.893 56.5682C207.54 57.596 207.032 58.4889 206.369 59.2467C205.715 60.0046 204.927 60.5964 204.005 61.0221C203.082 61.4373 202.055 61.645 200.925 61.645C199.785 61.645 198.753 61.4373 197.83 61.0221C196.908 60.5964 196.114 60.0046 195.451 59.2467C194.787 58.4889 194.279 57.596 193.927 56.5682C193.574 55.53 193.398 54.3984 193.398 53.1733ZM195.249 52.6594V53.1733C195.249 54.0973 195.373 54.9746 195.622 55.8051C195.871 56.6253 196.234 57.3572 196.711 58.0009C197.187 58.6342 197.778 59.1325 198.484 59.4959C199.189 59.8593 200.002 60.041 200.925 60.041C201.838 60.041 202.641 59.8593 203.336 59.4959C204.041 59.1325 204.632 58.6342 205.109 58.0009C205.586 57.3572 205.944 56.6253 206.182 55.8051C206.431 54.9746 206.555 54.0973 206.555 53.1733V52.6594C206.555 51.7458 206.431 50.8789 206.182 50.0587C205.944 49.2385 205.581 48.5066 205.093 47.8629C204.616 47.2192 204.025 46.7105 203.32 46.3368C202.615 45.963 201.807 45.7761 200.894 45.7761C199.982 45.7761 199.173 45.963 198.468 46.3368C197.773 46.7105 197.182 47.2192 196.695 47.8629C196.218 48.5066 195.855 49.2385 195.606 50.0587C195.368 50.8789 195.249 51.7458 195.249 52.6594Z" fill="#00CED1"/>
<path d="M214.16 48.0809V61.3335H212.309V44.4836H214.082L214.16 48.0809ZM213.74 51.8652L212.916 51.398C212.978 50.4013 213.18 49.4669 213.522 48.5948C213.864 47.7228 214.326 46.9545 214.906 46.29C215.497 45.6256 216.187 45.1065 216.975 44.7327C217.773 44.359 218.655 44.1721 219.619 44.1721C220.459 44.1721 221.21 44.2863 221.874 44.5147C222.538 44.7431 223.103 45.1065 223.569 45.6048C224.036 46.1032 224.388 46.7417 224.627 47.5203C224.876 48.299 225 49.2489 225 50.3702V61.3335H223.134V50.3546C223.134 49.1918 222.973 48.2834 222.652 47.6293C222.33 46.9649 221.874 46.4925 221.283 46.2122C220.692 45.9319 219.992 45.7917 219.183 45.7917C218.292 45.7917 217.509 45.989 216.835 46.3835C216.171 46.7676 215.611 47.2711 215.155 47.8941C214.709 48.5066 214.367 49.1658 214.129 49.8718C213.89 50.5674 213.761 51.2319 213.74 51.8652Z" fill="#00CED1"/>
</svg>
